<svg xmlns="http://www.w3.org/2000/svg" width="80" height="80" viewBox="0 0 80 80">
    <g fill="#d9d9d9" fill-rule="nonzero" opacity=".8">
        <path d="M39.5 1.753S2.046 71.38 2.038 71.367a87.727 87.727 0 0 1 31.07-8.096c1.465-4.16 2.217-9.428 2.217-13.72 0 0-3.58.135-6.956.543l2.782-7.944c5.564 0 4.173-11.318 8.347-16.716 4.173 5.398 2.782 16.716 8.348 16.716l2.782 7.944c-3.375-.406-6.957-.543-6.957-.543 0 4.292.753 9.56 2.217 13.72a87.727 87.727 0 0 1 31.071 8.096C76.954 71.38 39.5 1.753 39.5 1.753z"/>
        <g opacity=".4">
            <path d="M50.548 72.16a79.351 79.351 0 0 1 20.948 5.906 45.229 45.229 0 0 0 5.467-6.699 87.69 87.69 0 0 0-31.072-8.096 34.592 34.592 0 0 0 4.657 8.89zM33.11 63.271a87.727 87.727 0 0 0-31.07 8.096 45.408 45.408 0 0 0 5.466 6.699 79.351 79.351 0 0 1 20.948-5.906 34.7 34.7 0 0 0 4.657-8.889z"/>
        </g>
    </g>
</svg>
